# xmcd
#
# Track frame offsets: 
#        150
#        19360
#        40231
#        57660
#        78189
#        94652
#        115438
#        130379
#        148741
#        165700
#        184399
#        199917
#        220338
#        243833
#        264416
#        281002
#
# Disc length: 4087 seconds
#
# Revision: 19
# Processed by: cddbd v1.5.2PL0 Copyright (c) Steve Scherf et al.
# Submitted via: ExactAudioCopyFreeDBPlugin 1.0
#
DISCID=f60ff510
DTITLE=Laura Pausini - Yo Canto
DYEAR=2006
DGENRE=Latin
TTITLE0=Yo Canto
TTITLE1=Dos
TTITLE2=Escribeme
TTITLE3=Mi Libre Cancion (With Juanes)
TTITLE4=Destino Paraiso
TTITLE5=Estrella Gemela
TTITLE6=Como El Sol Inesperado
TTITLE7=Cinco Dias
TTITLE8=Y Mi Banda Toca El Rock
TTITLE9=Disparame Dispara
TTITLE10=Corazon Fragil
TTITLE11=No Me Lo Puedo Explicar (With Tiziano Ferro)
TTITLE12=En Los Jardines Donde Nadie Va
TTITLE13=En Un Cuarto Casi Rosa
TTITLE14=Cuando
TTITLE15=Por El Camino
EXTD=YEAR: 2006
EXTT0=
EXTT1=1993 Raf - Cheope
EXTT2=1990 Buonocore - De Vitis
EXTT3=1972 Battisti - Mogol
EXTT4=1995 Grignani - Luca
EXTT5=1996 Cogliati - Lavezzi - Ramazzotti - Tosetto
EXTT6=1986 Zucchero - Paoli
EXTT7=1994 Zarrillo - Incenzo
EXTT8=1979 Fossati
EXTT9=1995 Bersani - D'Onghia - Dalla
EXTT10=1980 Rossi
EXTT11=2003 Ferro
EXTT12=1994 Zero - Riccardi
EXTT13=1996 Antonacci
EXTT14=1991 Danile
EXTT15=1981 Baglioni
PLAYORDER=
